<?xml version="1.0" encoding="utf-8"?>
<!-- Generator: Adobe Illustrator 16.0.0, SVG Export Plug-In . SVG Version: 6.00 Build 0)  -->
<!DOCTYPE svg PUBLIC "-//W3C//DTD SVG 1.1//EN" "http://www.w3.org/Graphics/SVG/1.1/DTD/svg11.dtd">
<svg version="1.1" id="Layer_1" xmlns="http://www.w3.org/2000/svg" xmlns:xlink="http://www.w3.org/1999/xlink" x="0px" y="0px"
	 width="91.418px" height="91.417px" viewBox="0 0 91.418 91.417" enable-background="new 0 0 91.418 91.417" xml:space="preserve">
<path fill="#FFFFFF" d="M45.709,91.417c25.244,0,45.709-20.466,45.709-45.709C91.418,20.464,70.953,0,45.709,0S0,20.464,0,45.708
	C0,70.951,20.465,91.417,45.709,91.417"/>
<path fill="#C7D200" d="M90.711,45.708c0,24.849-20.152,45.002-45.003,45.002c-24.857,0-45.002-20.153-45.002-45.002
	c0-24.858,20.145-45.002,45.002-45.002C70.559,0.706,90.711,20.85,90.711,45.708"/>
<path fill="#FFFFFF" d="M84.483,45.712c0,21.414-17.359,38.771-38.772,38.771c-21.412,0-38.777-17.357-38.777-38.771
	c0-21.412,17.365-38.779,38.777-38.779C67.124,6.933,84.483,24.3,84.483,45.712"/>
<path fill="#6A951E" d="M77.313,45.712c0,17.458-14.151,31.601-31.6,31.601c-17.457,0-31.609-14.143-31.609-31.601
	c0-17.456,14.152-31.609,31.609-31.609C63.162,14.103,77.313,28.256,77.313,45.712"/>
<path fill="#FFFFFF" d="M26.23,34.991v0.711c-0.558,0.256-1.201,0.386-1.931,0.386c-0.594,0-1.097-0.103-1.51-0.302
	c-0.413-0.204-0.74-0.482-0.979-0.836c-0.241-0.355-0.362-0.74-0.362-1.153c0-0.656,0.275-1.207,0.826-1.654
	c0.552-0.447,1.232-0.67,2.041-0.67c0.557,0,1.176,0.123,1.86,0.37v0.693c-0.622-0.301-1.229-0.452-1.821-0.452
	c-0.609,0-1.114,0.164-1.516,0.488c-0.403,0.327-0.603,0.735-0.603,1.226c0,0.494,0.197,0.899,0.593,1.218
	c0.396,0.319,0.899,0.479,1.518,0.479C24.989,35.494,25.617,35.326,26.23,34.991"/>
<path fill="#FFFFFF" d="M28.946,31.507h0.539l2.379,4.531h-0.78l-0.707-1.335h-2.265l-0.661,1.335h-0.779L28.946,31.507z
	 M30.069,34.131l-0.86-1.636l-0.798,1.636H30.069z"/>
<path fill="#FFFFFF" d="M32.698,36.037v-4.511h1.685c0.506,0,0.91,0.117,1.213,0.351c0.302,0.23,0.451,0.543,0.451,0.935
	c0,0.262-0.077,0.494-0.232,0.698c-0.154,0.201-0.366,0.348-0.635,0.44c-0.27,0.092-0.654,0.137-1.156,0.137H33.46v1.95H32.698z
	 M34.247,32.101H33.46v1.413h0.833c0.31,0,0.55-0.063,0.716-0.186c0.167-0.124,0.25-0.303,0.25-0.532
	C35.259,32.333,34.923,32.101,34.247,32.101"/>
<polygon fill="#FFFFFF" points="36.771,31.536 39.78,31.536 39.78,32.11 37.532,32.11 37.532,33.483 39.707,33.483 39.707,34.061 
	37.532,34.061 37.532,35.461 39.854,35.461 39.854,36.032 36.771,36.032 "/>
<polygon fill="#FFFFFF" points="43.607,31.526 48.04,31.526 48.04,32.1 46.19,32.1 46.19,36.036 45.429,36.036 45.429,32.1 
	43.607,32.1 "/>
<path fill="#FFFFFF" d="M51.301,31.473c0.818,0,1.502,0.22,2.048,0.659c0.546,0.441,0.818,0.994,0.818,1.655
	c0,0.664-0.274,1.214-0.826,1.647c-0.551,0.434-1.243,0.652-2.083,0.652c-0.8,0-1.466-0.219-1.999-0.652
	c-0.534-0.434-0.8-0.979-0.8-1.634c0-0.673,0.27-1.228,0.807-1.669C49.803,31.692,50.48,31.473,51.301,31.473 M51.33,32.085
	c-0.606,0-1.104,0.16-1.498,0.482c-0.389,0.323-0.586,0.734-0.586,1.234c0,0.483,0.198,0.888,0.589,1.21
	c0.393,0.321,0.884,0.481,1.473,0.481c0.592,0,1.088-0.164,1.481-0.491c0.397-0.329,0.595-0.737,0.595-1.228
	c0-0.475-0.197-0.877-0.595-1.201C52.396,32.249,51.907,32.085,51.33,32.085"/>
<polygon fill="#FFFFFF" points="62.06,31.536 62.815,31.536 60.67,36.058 60.502,36.058 58.767,32.397 57.021,36.058 56.851,36.058 
	54.715,31.536 55.479,31.536 56.942,34.641 58.408,31.536 59.134,31.536 60.609,34.641 "/>
<polygon fill="#FFFFFF" points="67.836,31.536 68.56,31.536 68.56,36.038 67.905,36.038 64.354,32.573 64.354,36.038 63.641,36.038 
	63.641,31.536 64.256,31.536 67.836,35.03 "/>
<path d="M27.186,53.993c-1.742,0-3.243-0.315-4.459-0.938c-1.216-0.621-2.196-1.493-2.91-2.589
	c-0.713-1.099-1.074-2.304-1.074-3.583c0-2.029,0.826-3.759,2.456-5.143c1.622-1.376,3.649-2.073,6.026-2.073
	c1.628,0,3.462,0.382,5.452,1.138l0.103,0.039v2.468l-0.23-0.118c-1.771-0.894-3.524-1.347-5.214-1.347
	c-1.717,0-3.161,0.486-4.293,1.445c-1.122,0.951-1.691,2.16-1.691,3.592c0,1.444,0.561,2.648,1.666,3.579
	c1.112,0.936,2.56,1.412,4.302,1.412c1.831,0,3.647-0.508,5.397-1.504l0.238-0.137v2.532l-0.09,0.044
	C31.232,53.596,29.321,53.993,27.186,53.993"/>
<path d="M43.543,53.993c-1.741,0-3.24-0.315-4.455-0.938c-1.218-0.621-2.197-1.492-2.911-2.589
	c-0.713-1.099-1.074-2.304-1.074-3.583c0-2.03,0.826-3.76,2.456-5.143c1.622-1.376,3.648-2.073,6.023-2.073
	c1.631,0,3.466,0.382,5.453,1.138l0.104,0.039v2.468l-0.231-0.118c-1.769-0.894-3.522-1.347-5.212-1.347
	c-1.718,0-3.162,0.486-4.292,1.445c-1.123,0.951-1.692,2.16-1.692,3.592c0,1.443,0.56,2.647,1.664,3.579
	c1.114,0.936,2.563,1.412,4.304,1.412c1.832,0,3.647-0.508,5.396-1.504l0.238-0.137v2.532l-0.09,0.044
	C47.593,53.596,45.682,53.993,43.543,53.993"/>
<rect x="52.083" y="39.866" width="2.531" height="13.971"/>
<path d="M63.272,51.776c1.085,0,1.938-0.066,2.538-0.197c0.597-0.131,1.098-0.298,1.491-0.497c0.397-0.2,0.763-0.448,1.087-0.734
	c1.048-0.94,1.58-2.149,1.58-3.591c0-1.411-0.545-2.578-1.62-3.468c-0.397-0.334-0.861-0.611-1.378-0.826
	c-0.518-0.216-1.016-0.36-1.482-0.431c-0.47-0.07-1.239-0.105-2.283-0.105h-2.601v9.85H63.272z M58.074,53.835V39.866h5.363
	c2.11,0,3.809,0.286,5.048,0.851c1.243,0.567,2.247,1.414,2.983,2.518c0.735,1.104,1.108,2.326,1.108,3.631
	c0,0.933-0.206,1.839-0.611,2.691c-0.406,0.852-0.992,1.61-1.741,2.254c-0.768,0.665-1.666,1.173-2.672,1.507
	c-0.586,0.205-1.136,0.345-1.63,0.415c-0.49,0.068-1.407,0.103-2.807,0.103H58.074z"/>
<polygon fill="#C7D200" points="21.566,60.113 26.41,57.357 27.629,59.829 29.256,58.38 61.024,58.476 62.568,60.637 68.883,58.658 
	"/>
</svg>
