<svg viewBox="0 0 24 24" xmlns="http://www.w3.org/2000/svg" role="img" aria-label="Google Cloud">
  <defs>
    <clipPath id="gc-cloud">
      <path d="M19.35 10.04A7.49 7.49 0 0 0 12 4C9.11 4 6.6 5.64 5.35 8.04A5.994 5.994 0 0 0 0 14a6 6 0 0 0 6 6h13a5 5 0 0 0 5-5c0-2.64-2.05-4.78-4.65-4.96z"/>
    </clipPath>
  </defs>
  <g clip-path="url(#gc-cloud)">
    <polygon points="0,2 24,2 12,12" fill="#4285F4"/>
    <polygon points="24,2 24,22 12,12" fill="#EA4335"/>
    <polygon points="24,22 0,22 12,12" fill="#FBBC05"/>
    <polygon points="0,22 0,2 12,12" fill="#34A853"/>
  </g>
</svg>
