<svg width="204" height="50" viewBox="0 0 204 50" fill="none" xmlns="http://www.w3.org/2000/svg">
<g clip-path="url(#clip0_12414_133219)">
<path d="M11.2421 43.3333C8.08421 43.3333 5.30526 42.1794 3.15789 39.9999C1.01053 37.8205 0 35.1281 0 31.7948C0 28.4615 1.01053 25.7692 3.15789 23.5897C5.30526 21.4102 7.95789 20.2563 11.2421 20.2563C14.5263 20.2563 17.1789 21.4102 19.2 23.8461L17.1789 25.7692C15.6632 23.8461 13.6421 22.9487 11.2421 22.9487C8.8421 22.9487 6.82105 23.7179 5.17895 25.3846C3.53684 27.0512 2.77895 29.1025 2.77895 31.6666C2.77895 34.2307 3.53684 36.4102 5.17895 37.9487C6.82105 39.7435 8.8421 40.641 11.2421 40.641C13.7684 40.641 15.9158 39.6153 17.8105 37.4358L19.8316 39.4871C18.8211 40.7692 17.5579 41.6666 16.0421 42.4358C14.5263 42.9487 13.0105 43.3333 11.2421 43.3333Z" fill="#5F6368"/>
<path d="M24.2516 20.769V42.8203H21.4727V20.769H24.2516Z" fill="#5F6368"/>
<path d="M26.0195 35.2561C26.0195 32.9484 26.7774 31.0254 28.1669 29.4869C29.6827 27.9484 31.4511 27.1792 33.5985 27.1792C35.7458 27.1792 37.6406 27.9484 39.0301 29.4869C40.5458 31.0254 41.1774 32.9484 41.1774 35.2561C41.1774 37.5638 40.4195 39.4869 39.0301 41.0254C37.6406 42.5638 35.7458 43.333 33.5985 43.333C31.4511 43.333 29.5564 42.5638 28.1669 41.0254C26.7774 39.4869 26.0195 37.5638 26.0195 35.2561ZM28.7985 35.2561C28.7985 36.9228 29.3037 38.2048 30.188 39.2305C31.0722 40.2561 32.209 40.7689 33.5985 40.7689C34.988 40.7689 36.1248 40.2561 37.009 39.2305C37.8932 38.2048 38.3985 36.9228 38.3985 35.2561C38.3985 33.7177 37.8932 32.3074 37.009 31.41C35.9985 30.3843 34.8616 29.8715 33.5985 29.8715C32.209 29.8715 31.0722 30.3843 30.188 31.41C29.3037 32.4356 28.7985 33.7177 28.7985 35.2561Z" fill="#5F6368"/>
<path d="M55.9572 42.8206H53.3045V40.7693H53.1782C52.7993 41.5385 52.0414 42.1796 51.2835 42.5642C50.3993 43.077 49.515 43.3334 48.5045 43.3334C46.7361 43.3334 45.3466 42.8206 44.3361 41.7949C43.3256 40.7693 42.8203 39.2308 42.8203 37.3078V27.8206H45.5993V37.0514C45.5993 39.4873 46.8624 40.7693 49.2624 40.7693C50.3993 40.7693 51.2835 40.2565 52.0414 39.359C52.7993 38.4616 53.1782 37.3078 53.1782 36.0257V27.6924H55.9572V42.8206Z" fill="#5F6368"/>
<path d="M64.8002 43.3333C62.9055 43.3333 61.1371 42.5641 59.7476 41.0256C58.3581 39.4871 57.7266 37.5641 57.7266 35.3846C57.7266 33.2051 58.3581 31.282 59.7476 29.7436C61.1371 28.2051 62.7792 27.4359 64.8002 27.4359C65.9371 27.4359 66.8213 27.6923 67.8318 28.2051C68.716 28.7179 69.4739 29.3589 69.8529 30.1282H69.9792L69.8529 28.0769V21.1538H72.6318V43.2051H69.9792V41.1538H69.8529C69.3476 41.923 68.716 42.5641 67.8318 43.0769C66.8213 43.0769 65.9371 43.3333 64.8002 43.3333ZM65.3055 40.7692C66.695 40.7692 67.8318 40.2564 68.716 39.2307C69.6002 38.2051 70.1055 36.923 70.1055 35.2564C70.1055 33.7179 69.6002 32.4359 68.716 31.4102C67.8318 30.3846 66.695 29.8718 65.3055 29.8718C63.916 29.8718 62.9055 30.3846 61.895 31.4102C61.0108 32.4359 60.5055 33.7179 60.5055 35.2564C60.5055 36.7948 61.0108 38.2051 61.895 39.1025C62.7792 40.2564 63.916 40.7692 65.3055 40.7692Z" fill="#5F6368"/>
<path d="M84.7594 33.9742V42.9485H81.9805V20.769H89.3068C91.2015 20.769 92.7173 21.4101 94.1068 22.6921C95.4963 23.9742 96.1278 25.5126 96.1278 27.3075C96.1278 29.2306 95.4963 30.769 94.1068 31.9229C92.8436 33.2049 91.2015 33.846 89.3068 33.846H84.7594V33.9742ZM84.7594 23.5896V31.2819H89.4331C90.5699 31.2819 91.4542 30.8972 92.212 30.128C92.9699 29.3588 93.3489 28.4613 93.3489 27.4357C93.3489 26.4101 92.9699 25.5126 92.212 24.7434C91.4542 23.9742 90.5699 23.5896 89.4331 23.5896H84.7594Z" fill="#5F6368"/>
<path d="M100.295 42.8204H97.5156V27.8204H100.168V30.2563H100.295C100.547 29.4871 101.179 28.7179 102.063 28.2051C102.947 27.6922 103.831 27.3076 104.589 27.3076C105.347 27.3076 106.105 27.4358 106.61 27.6922L105.726 30.3845C105.347 30.2563 104.842 30.1281 104.084 30.1281C103.074 30.1281 102.063 30.5127 101.305 31.4102C100.547 32.3076 100.168 33.3333 100.168 34.3589V42.8204H100.295Z" fill="#5F6368"/>
<path d="M106.359 35.2561C106.359 32.9484 107.117 31.0254 108.507 29.4869C110.023 27.9484 111.791 27.1792 113.938 27.1792C116.086 27.1792 117.98 27.9484 119.37 29.4869C120.886 31.0254 121.517 32.9484 121.517 35.2561C121.517 37.5638 120.759 39.4869 119.37 41.0254C117.98 42.5638 116.086 43.333 113.938 43.333C111.791 43.333 109.896 42.5638 108.507 41.0254C107.117 39.4869 106.359 37.5638 106.359 35.2561ZM109.138 35.2561C109.138 36.9228 109.644 38.2048 110.528 39.2305C111.412 40.2561 112.549 40.7689 113.938 40.7689C115.328 40.7689 116.465 40.2561 117.349 39.2305C118.233 38.2048 118.738 36.9228 118.738 35.2561C118.738 33.7177 118.233 32.3074 117.349 31.41C116.338 30.3843 115.201 29.8715 113.938 29.8715C112.549 29.8715 111.412 30.3843 110.528 31.41C109.644 32.4356 109.138 33.7177 109.138 35.2561Z" fill="#5F6368"/>
<path d="M129.98 49.9997C129.096 49.9997 128.338 49.8715 127.706 49.6151C126.948 49.3587 126.317 49.1023 125.685 48.7177C125.054 48.333 124.548 47.8202 124.169 47.3074C123.791 46.7946 123.412 46.1536 123.159 45.5125L125.812 44.3587C126.064 45.2561 126.696 45.8971 127.327 46.5382C128.085 47.051 128.969 47.3074 129.98 47.3074C131.496 47.3074 132.633 46.7946 133.517 45.8971C134.401 44.9997 134.78 43.7177 134.78 42.051V40.6407H134.654C134.148 41.41 133.391 42.051 132.506 42.5638C131.622 43.0766 130.612 43.2048 129.601 43.2048C127.706 43.2048 125.938 42.4356 124.548 40.8971C123.159 39.3587 122.527 37.4356 122.527 35.1279C122.527 32.9484 123.159 31.0254 124.548 29.4869C125.938 27.9484 127.58 27.1792 129.601 27.1792C130.612 27.1792 131.622 27.4356 132.506 27.8202C133.391 28.333 134.148 28.9741 134.654 29.7433H134.78V27.692H137.433V42.051C137.433 44.4869 136.801 46.41 135.412 47.692C134.022 49.2305 132.254 49.9997 129.98 49.9997ZM130.106 40.7689C131.496 40.7689 132.633 40.2561 133.517 39.2305C134.401 38.2048 134.906 36.9228 134.906 35.2561C134.906 33.7177 134.401 32.4356 133.517 31.41C132.633 30.3843 131.496 29.8715 130.106 29.8715C128.717 29.8715 127.706 30.3843 126.696 31.41C125.812 32.4356 125.306 33.7177 125.306 35.2561C125.306 36.7946 125.812 38.2048 126.696 39.1023C127.58 40.2561 128.717 40.7689 130.106 40.7689Z" fill="#5F6368"/>
<path d="M142.736 42.8204H139.957V27.8204H142.61V30.2563H142.736C142.989 29.4871 143.62 28.7179 144.504 28.2051C145.389 27.6922 146.273 27.3076 147.031 27.3076C147.789 27.3076 148.547 27.4358 149.052 27.6922L148.168 30.3845C147.789 30.2563 147.283 30.1281 146.525 30.1281C145.515 30.1281 144.504 30.5127 143.747 31.4102C142.989 32.3076 142.736 33.3333 142.736 34.4871V42.8204Z" fill="#5F6368"/>
<path d="M155.745 27.3076C157.767 27.3076 159.409 27.8204 160.672 28.9743C161.809 30.1281 162.44 31.6666 162.44 33.5897V42.8204H159.788V40.7692H159.661C158.524 42.4358 157.009 43.3333 155.114 43.3333C153.472 43.3333 152.082 42.8204 151.072 41.7948C149.935 40.7692 149.43 39.6153 149.43 38.0768C149.43 36.5384 150.061 35.2563 151.198 34.3589C152.335 33.4615 153.851 32.9486 155.872 32.9486C157.514 32.9486 158.903 33.2051 159.914 33.8461V33.3333C159.914 32.3076 159.535 31.5384 158.777 30.7692C158.019 30.1281 157.135 29.7435 156.124 29.7435C154.609 29.7435 153.345 30.3845 152.461 31.7948L150.061 30.2563C151.072 28.2051 153.093 27.3076 155.745 27.3076ZM152.082 38.2051C152.082 38.9743 152.335 39.6153 152.967 39.9999C153.598 40.5127 154.356 40.7692 155.114 40.7692C156.251 40.7692 157.388 40.3845 158.272 39.4871C159.156 38.5897 159.661 37.564 159.661 36.4102C158.777 35.7692 157.64 35.3845 155.998 35.3845C154.861 35.3845 153.977 35.641 153.219 36.1538C152.461 36.6666 152.082 37.4358 152.082 38.2051Z" fill="#5F6368"/>
<path d="M167.494 42.8204H164.715V27.8204H167.367V29.8717H167.494C167.873 29.1025 168.631 28.4615 169.389 28.0768C170.273 27.564 171.157 27.3076 172.041 27.3076C173.178 27.3076 174.062 27.564 174.946 28.0768C175.831 28.5897 176.336 29.3589 176.715 30.2563C177.978 28.3333 179.62 27.3076 181.894 27.3076C183.662 27.3076 184.925 27.8204 185.81 28.8461C186.694 29.8717 187.199 31.4102 187.199 33.3333V42.6922H184.42V33.7179C184.42 32.3076 184.167 31.282 183.662 30.641C183.157 29.9999 182.273 29.7435 181.136 29.7435C180.125 29.7435 179.115 30.2563 178.483 31.1538C177.725 32.0512 177.346 33.2051 177.346 34.3589V42.6922H174.567V33.7179C174.567 32.3076 174.315 31.282 173.81 30.641C173.304 29.9999 172.42 29.7435 171.283 29.7435C170.273 29.7435 169.262 30.2563 168.631 31.1538C167.873 32.0512 167.494 33.2051 167.494 34.3589V42.8204Z" fill="#5F6368"/>
<path d="M178.611 12.9487H178.484C178.484 12.8205 178.484 12.8205 178.611 12.9487C178.611 12.8205 178.611 12.9487 178.611 12.9487Z" fill="#34A853"/>
<path d="M203.116 20C202.61 18.0769 201.852 16.5385 200.968 15.2564C199.958 13.7179 198.568 12.4359 197.052 11.6667C194.4 10.1282 190.989 9.61539 187.073 10.1282C184.421 10.5128 181.768 11.1538 178.737 12.3077C176.21 8.46154 173.431 5.51282 170.273 3.33333C168.252 2.05128 166.105 1.15385 164.084 0.512821C161.937 0 159.663 -0.128205 157.263 0.128205C153.221 0.512821 149.052 2.05128 144.758 4.74359C141.347 6.79487 138.316 9.35897 135.537 12.1795C134.652 10.641 133.516 9.48718 132.252 8.71795C130.484 7.5641 128.21 7.17949 125.81 7.69231C123.916 8.07692 122.147 8.71795 120.126 10C118.358 11.0256 116.716 12.1795 115.2 13.5897C114.947 13.8462 114.695 14.2308 115.326 15C115.452 15.2564 115.958 15.7692 116.589 15.2564C117.979 14.1026 119.495 12.9487 121.137 12.0513C122.905 11.0256 124.547 10.3846 126.189 10.1282C127.958 9.74359 129.6 10.1282 130.863 10.8974C132 11.6667 133.01 12.9487 133.894 14.8718C134.021 15.2564 134.4 15.5128 134.779 15.5128C135.031 15.5128 135.284 15.5128 135.537 15.3846C135.789 15.2564 135.916 15.1282 136.168 15C136.421 14.8718 136.547 14.6154 136.673 14.4872C136.926 14.2308 137.052 14.1026 137.305 13.8462C137.684 13.4615 138.189 13.0769 138.568 12.5641C138.947 12.1795 139.452 11.7949 139.958 11.4103C140.463 11.0256 140.842 10.641 141.347 10.2564C141.852 9.8718 142.231 9.48718 142.737 9.23077C143.242 8.84615 143.747 8.58974 144.126 8.20513C144.631 7.82051 145.137 7.5641 145.642 7.30769C145.768 7.30769 145.768 7.17949 145.895 7.17949C149.81 4.74359 153.726 3.33333 157.389 2.94872C161.305 2.5641 165.347 3.58974 168.758 5.76923C171.789 7.94872 174.568 11.0256 177.094 14.8718C177.094 14.8718 177.6 15.5128 178.61 15.3846C181.894 14.1026 184.8 13.3333 187.326 13.0769C190.61 12.6923 193.516 13.0769 195.663 14.359C197.937 15.641 199.579 17.9487 200.337 21.0256C201.095 23.5897 201.221 26.5385 200.968 30C200.968 30.3846 201.094 30.641 201.347 30.8974C201.6 31.1538 201.852 31.1538 202.358 31.2821C202.484 31.2821 202.484 31.2821 202.61 31.2821C202.989 31.2821 203.368 31.1538 203.621 31.0256C203.873 30.8974 204 30.641 204 30.2564C204.126 26.1538 203.873 22.9487 203.116 20ZM178.484 12.8205C178.61 12.8205 178.61 12.8205 178.61 12.8205H178.484Z" fill="#34A853"/>
<path d="M178.611 12.8203C178.484 12.8203 178.484 12.8203 178.611 12.8203C178.611 12.9485 178.611 12.8203 178.611 12.8203Z" fill="#34A853"/>
</g>
<defs>
<clipPath id="clip0_12414_133219">
<rect width="204" height="50" fill="white"/>
</clipPath>
</defs>
</svg>
