<svg width="212" height="213" viewBox="0 0 212 213" fill="none" xmlns="http://www.w3.org/2000/svg">
<rect width="212" height="213" rx="5" fill="black"/>
<line x1="27.5" x2="27.5" y2="213" stroke="#4A4A4A"/>
<rect x="8" y="16" width="11" height="11" rx="5.5" fill="#1E7484"/>
<rect x="8" y="44" width="11" height="11" rx="5.5" fill="#103238"/>
<rect x="8" y="72" width="11" height="11" rx="5.5" fill="#103238"/>
<rect x="8" y="100" width="11" height="11" rx="5.5" fill="#103238"/>
<rect x="8" y="128" width="11" height="11" rx="5.5" fill="#103238"/>
<rect x="8" y="156" width="11" height="11" rx="5.5" fill="#103238"/>
<rect x="8" y="184" width="11" height="11" rx="5.5" fill="#103238"/>
<rect x="38" y="14" width="23" height="2" rx="1" fill="#B0B0B0"/>
<rect x="38" y="21" width="52" height="2" rx="1" fill="#4A4A4A"/>
<rect x="38" y="37" width="52" height="21" rx="2" fill="#3B3A3A"/>
<rect x="93" y="37" width="52" height="21" rx="2" fill="#727272"/>
<rect x="148" y="37" width="52" height="21" rx="2" fill="#727272"/>
<rect x="162" y="10" width="11" height="11" rx="5.5" fill="#4A4A4A"/>
<rect x="180" y="12" width="15" height="2" rx="1" fill="#4A4A4A"/>
<rect x="180" y="19" width="11" height="2" rx="1" fill="#4A4A4A"/>
<rect x="46" y="79" width="23" height="2" rx="1" fill="#B0B0B0"/>
<rect x="46" y="86" width="85" height="2" rx="1" fill="#4A4A4A"/>
<rect x="46" y="93" width="58" height="2" rx="1" fill="#4A4A4A"/>
<rect x="46" y="100" width="73" height="2" rx="1" fill="#4A4A4A"/>
<rect x="38.5" y="70.5" width="161" height="41" rx="4.5" stroke="#4A4A4A"/>
<rect x="38" y="124" width="162" height="77" rx="5" fill="#908E8E"/>
<path d="M37.9753 167.69C85.5 109 105.5 213 136 178.5C166.5 144 200 167.69 200 167.69" stroke="#1E1E1E"/>
<path d="M38 171.5C82.5 152.5 89.5 183 116 193C142.5 203 162.5 98.5 200 175.471" stroke="#B0B0B0"/>
<path d="M38 178.516C78.5 168 88 191 116 195C144 199 140.5 171.5 199.5 171.5" stroke="#B0B0B0"/>
<path d="M38 160.471C38 160.471 79.5 182 100 163C120.5 144 139 165 139 165" stroke="#1E1E1E"/>
<path d="M138.5 164.5C152 188.5 200 175 200 179" stroke="#1E1E1E"/>
<circle cx="37.5" cy="160.5" r="1.5" fill="#1E1E1E"/>
<circle cx="66.5" cy="149.5" r="1.5" fill="#1E1E1E"/>
<circle cx="58.5" cy="138.5" r="2.5" fill="#1E1E1E"/>
<circle cx="94.5" cy="138.5" r="2.5" fill="#1E1E1E"/>
<circle cx="130.5" cy="138.5" r="2.5" fill="#B0B0B0"/>
<circle cx="166.5" cy="138.5" r="2.5" fill="#B0B0B0"/>
<circle cx="118.5" cy="155.5" r="1.5" fill="#1E1E1E"/>
<circle cx="138.5" cy="164.5" r="1.5" fill="#1E1E1E"/>
<circle cx="163.5" cy="178.5" r="1.5" fill="#1E1E1E"/>
<circle cx="121.5" cy="185.5" r="1.5" fill="#1E1E1E"/>
<circle cx="172.5" cy="159.5" r="1.5" fill="#1E1E1E"/>
<circle cx="200.5" cy="167.5" r="1.5" fill="#1E1E1E"/>
<circle cx="200.5" cy="178.5" r="1.5" fill="#1E1E1E"/>
<circle cx="66.5" cy="165.5" r="1.5" fill="#B0B0B0"/>
<circle cx="70.5" cy="170.5" r="1.5" fill="#1E1E1E"/>
<circle cx="58.5" cy="175.5" r="1.5" fill="#B0B0B0"/>
<circle cx="119.5" cy="193.5" r="1.5" fill="#B0B0B0"/>
<circle cx="119.5" cy="195.5" r="1.5" fill="#B0B0B0"/>
<circle cx="170.5" cy="174.5" r="1.5" fill="#B0B0B0"/>
<circle cx="200.5" cy="171.5" r="1.5" fill="#B0B0B0"/>
<circle cx="200.5" cy="175.5" r="1.5" fill="#B0B0B0"/>
<circle cx="172.5" cy="147.5" r="1.5" fill="#B0B0B0"/>
<circle cx="37.5" cy="167.5" r="1.5" fill="#1E1E1E"/>
<circle cx="37.5" cy="171.5" r="1.5" fill="#B0B0B0"/>
<circle cx="37.5" cy="178.5" r="1.5" fill="#B0B0B0"/>
<rect x="34" y="155" width="4" height="31" fill="black"/>
<rect x="200" y="161" width="4" height="22" fill="black"/>
<rect x="63" y="138" width="16" height="2" rx="1" fill="#4A4A4A"/>
<rect x="99" y="138" width="16" height="2" rx="1" fill="#4A4A4A"/>
<rect x="136" y="138" width="16" height="2" rx="1" fill="#4A4A4A"/>
<rect x="171" y="138" width="16" height="2" rx="1" fill="#4A4A4A"/>
<rect x="46" y="130" width="23" height="2" rx="1" fill="#E0E0E0"/>
</svg>
