<svg width="212" height="213" viewBox="0 0 212 213" fill="none" xmlns="http://www.w3.org/2000/svg">
<rect width="212" height="213" rx="5" fill="black"/>
<rect x="33.0291" y="12.5" width="144.82" height="25" rx="4.5" stroke="url(#paint0_radial_1_35)"/>
<rect x="33.0291" y="118.5" width="144.82" height="25" rx="4.5" stroke="url(#paint1_radial_1_35)"/>
<rect x="33.0291" y="65.5" width="144.82" height="25" rx="4.5" stroke="url(#paint2_radial_1_35)"/>
<rect x="33.0291" y="171.5" width="144.82" height="25" rx="4.5" stroke="url(#paint3_radial_1_35)"/>
<line x1="105.939" y1="38" x2="105.939" y2="65" stroke="#4A4A4A"/>
<line x1="105.939" y1="38" x2="105.939" y2="65" stroke="#4A4A4A"/>
<line x1="105.939" y1="144" x2="105.939" y2="171" stroke="#4A4A4A"/>
<line x1="105.939" y1="144" x2="105.939" y2="171" stroke="#4A4A4A"/>
<line x1="105.939" y1="91" x2="105.939" y2="118" stroke="#4A4A4A"/>
<line x1="105.939" y1="91" x2="105.939" y2="118" stroke="#4A4A4A"/>
<path d="M67.6199 29C67.4079 29 67.3019 28.894 67.3019 28.682V21.584C67.3019 21.372 67.4079 21.266 67.6199 21.266H70.4279C71.1119 21.266 71.6279 21.442 71.9759 21.794C72.3279 22.146 72.5039 22.664 72.5039 23.348V23.708C72.5039 24.388 72.3279 24.904 71.9759 25.256C71.6279 25.608 71.1119 25.784 70.4279 25.784H67.9319V28.682C67.9319 28.894 67.8279 29 67.6199 29ZM67.9319 25.154H70.4279C70.9319 25.154 71.2979 25.04 71.5259 24.812C71.7579 24.58 71.8739 24.212 71.8739 23.708V23.348C71.8739 22.84 71.7579 22.472 71.5259 22.244C71.2979 22.012 70.9319 21.896 70.4279 21.896H67.9319V25.154ZM75.7145 29C75.0905 29 74.6325 28.856 74.3405 28.568C74.0525 28.276 73.9085 27.818 73.9085 27.194C73.9085 26.57 74.0545 26.112 74.3465 25.82C74.6385 25.528 75.0945 25.382 75.7145 25.382H78.4445C78.4365 24.854 78.3165 24.486 78.0845 24.278C77.8565 24.066 77.4665 23.96 76.9145 23.96H76.2185C75.7105 23.96 75.3385 24.014 75.1025 24.122C74.8665 24.23 74.7205 24.414 74.6645 24.674C74.6365 24.774 74.5985 24.848 74.5505 24.896C74.5065 24.94 74.4345 24.962 74.3345 24.962C74.2305 24.962 74.1485 24.934 74.0885 24.878C74.0325 24.818 74.0125 24.738 74.0285 24.638C74.0805 24.182 74.2865 23.85 74.6465 23.642C75.0105 23.434 75.5345 23.33 76.2185 23.33H76.9145C77.6625 23.33 78.2085 23.504 78.5525 23.852C78.9005 24.196 79.0745 24.742 79.0745 25.49V28.682C79.0745 28.894 78.9705 29 78.7625 29C78.5505 29 78.4445 28.894 78.4445 28.682V28.088C78.0605 28.696 77.3745 29 76.3865 29H75.7145ZM75.7145 28.37H76.3865C76.7745 28.37 77.1145 28.328 77.4065 28.244C77.7025 28.156 77.9405 28.016 78.1205 27.824C78.3005 27.632 78.4085 27.376 78.4445 27.056V26.012H75.7145C75.2705 26.012 74.9625 26.098 74.7905 26.27C74.6225 26.438 74.5385 26.746 74.5385 27.194C74.5385 27.638 74.6225 27.946 74.7905 28.118C74.9625 28.286 75.2705 28.37 75.7145 28.37ZM81.53 31.4C81.318 31.4 81.212 31.294 81.212 31.082V23.642C81.212 23.434 81.318 23.33 81.53 23.33C81.738 23.33 81.842 23.434 81.842 23.642V24.176C82.022 23.896 82.28 23.686 82.616 23.546C82.952 23.402 83.382 23.33 83.906 23.33H84.362C85.11 23.33 85.6561 23.504 86.0001 23.852C86.348 24.196 86.522 24.742 86.522 25.49V26.834C86.522 27.582 86.348 28.13 86.0001 28.478C85.6561 28.826 85.11 29 84.362 29H81.842V31.082C81.842 31.294 81.738 31.4 81.53 31.4ZM81.842 28.37H84.362C84.934 28.37 85.332 28.258 85.5561 28.034C85.7801 27.806 85.8921 27.406 85.8921 26.834V25.49C85.8921 24.918 85.7801 24.52 85.5561 24.296C85.332 24.072 84.934 23.96 84.362 23.96H83.906C83.266 23.96 82.774 24.06 82.43 24.26C82.09 24.46 81.894 24.768 81.842 25.184V28.37ZM89.0746 26.408V26.846C89.0746 27.41 89.1866 27.806 89.4106 28.034C89.6386 28.258 90.0386 28.37 90.6106 28.37H91.5946C92.0986 28.37 92.4646 28.306 92.6926 28.178C92.9246 28.046 93.0626 27.82 93.1066 27.5C93.1226 27.4 93.1546 27.324 93.2026 27.272C93.2546 27.22 93.3326 27.194 93.4366 27.194C93.5406 27.194 93.6186 27.224 93.6706 27.284C93.7266 27.34 93.7486 27.42 93.7366 27.524C93.6846 28.028 93.4826 28.4 93.1306 28.64C92.7786 28.88 92.2666 29 91.5946 29H90.6106C89.8626 29 89.3146 28.828 88.9666 28.484C88.6186 28.136 88.4446 27.59 88.4446 26.846V25.49C88.4446 24.734 88.6186 24.184 88.9666 23.84C89.3146 23.492 89.8626 23.322 90.6106 23.33H91.5946C92.3426 23.33 92.8886 23.504 93.2326 23.852C93.5806 24.196 93.7546 24.742 93.7546 25.49V26.09C93.7546 26.302 93.6506 26.408 93.4426 26.408H89.0746ZM90.6106 23.96C90.0386 23.952 89.6386 24.062 89.4106 24.29C89.1866 24.514 89.0746 24.914 89.0746 25.49V25.778H93.1246V25.49C93.1246 24.918 93.0126 24.52 92.7886 24.296C92.5646 24.072 92.1666 23.96 91.5946 23.96H90.6106ZM96.155 29C95.943 29 95.837 28.894 95.837 28.682V23.642C95.837 23.434 95.943 23.33 96.155 23.33C96.363 23.33 96.467 23.434 96.467 23.642V24.566C96.675 24.166 96.975 23.86 97.367 23.648C97.763 23.436 98.231 23.33 98.7711 23.33C98.983 23.33 99.089 23.434 99.089 23.642C99.089 23.854 98.983 23.96 98.7711 23.96C98.059 23.96 97.507 24.122 97.115 24.446C96.723 24.766 96.507 25.224 96.467 25.82V28.682C96.467 28.894 96.363 29 96.155 29ZM103.69 29C103.478 29 103.372 28.894 103.372 28.682V21.584C103.372 21.372 103.478 21.266 103.69 21.266H108.016C108.116 21.266 108.192 21.294 108.244 21.35C108.3 21.402 108.328 21.48 108.328 21.584C108.328 21.792 108.224 21.896 108.016 21.896H104.002V24.77H106.738C106.95 24.77 107.056 24.874 107.056 25.082C107.056 25.294 106.95 25.4 106.738 25.4H104.002V28.682C104.002 28.894 103.898 29 103.69 29ZM110.614 29C109.866 29 109.318 28.828 108.97 28.484C108.622 28.136 108.448 27.59 108.448 26.846V25.49C108.448 24.734 108.622 24.184 108.97 23.84C109.318 23.492 109.866 23.322 110.614 23.33H111.598C112.346 23.33 112.892 23.504 113.236 23.852C113.584 24.196 113.758 24.742 113.758 25.49V26.834C113.758 27.582 113.584 28.13 113.236 28.478C112.892 28.826 112.346 29 111.598 29H110.614ZM109.078 26.846C109.078 27.41 109.19 27.806 109.414 28.034C109.642 28.258 110.042 28.37 110.614 28.37H111.598C112.17 28.37 112.568 28.258 112.792 28.034C113.016 27.806 113.128 27.406 113.128 26.834V25.49C113.128 24.918 113.016 24.52 112.792 24.296C112.568 24.072 112.17 23.96 111.598 23.96H110.614C110.23 23.956 109.926 24.002 109.702 24.098C109.478 24.194 109.318 24.354 109.222 24.578C109.126 24.802 109.078 25.106 109.078 25.49V26.846ZM116.159 29C115.947 29 115.841 28.894 115.841 28.682V23.642C115.841 23.434 115.947 23.33 116.159 23.33C116.367 23.33 116.471 23.434 116.471 23.642V24.566C116.679 24.166 116.979 23.86 117.371 23.648C117.767 23.436 118.235 23.33 118.775 23.33C118.987 23.33 119.093 23.434 119.093 23.642C119.093 23.854 118.987 23.96 118.775 23.96C118.063 23.96 117.511 24.122 117.119 24.446C116.727 24.766 116.511 25.224 116.471 25.82V28.682C116.471 28.894 116.367 29 116.159 29ZM126.718 23.318C127.362 23.318 127.822 23.482 128.098 23.81C128.378 24.138 128.518 24.68 128.518 25.436V28.694C128.518 28.902 128.414 29.006 128.206 29.006C127.994 29.006 127.888 28.902 127.888 28.694V25.436C127.888 24.908 127.798 24.528 127.618 24.296C127.438 24.064 127.138 23.948 126.718 23.948H126.22C125.696 23.948 125.32 24.064 125.092 24.296C124.868 24.528 124.756 24.908 124.756 25.436V28.694C124.756 28.902 124.652 29.006 124.444 29.006C124.232 29.006 124.126 28.902 124.126 28.694V25.436C124.126 24.908 124.036 24.528 123.856 24.296C123.676 24.064 123.376 23.948 122.956 23.948H122.458C121.934 23.948 121.558 24.064 121.33 24.296C121.106 24.528 120.994 24.908 120.994 25.436V28.694C120.994 28.902 120.89 29.006 120.682 29.006C120.47 29.006 120.364 28.902 120.364 28.694V23.642C120.364 23.434 120.47 23.33 120.682 23.33C120.89 23.33 120.994 23.434 120.994 23.642V24.11C121.17 23.826 121.378 23.624 121.618 23.504C121.862 23.38 122.17 23.318 122.542 23.318H122.956C123.376 23.318 123.712 23.392 123.964 23.54C124.22 23.684 124.422 23.922 124.57 24.254C124.746 23.922 124.962 23.684 125.218 23.54C125.474 23.392 125.808 23.318 126.22 23.318H126.718ZM131.895 28.988C131.403 28.988 131.027 28.884 130.767 28.676C130.507 28.464 130.351 28.142 130.299 27.71C130.287 27.606 130.309 27.526 130.365 27.47C130.421 27.41 130.503 27.38 130.611 27.38C130.711 27.38 130.785 27.406 130.833 27.458C130.885 27.51 130.919 27.588 130.935 27.692C130.971 27.94 131.061 28.114 131.205 28.214C131.353 28.31 131.583 28.358 131.895 28.358H133.863C134.235 28.358 134.491 28.288 134.631 28.148C134.771 28.008 134.841 27.752 134.841 27.38C134.841 27.004 134.771 26.746 134.631 26.606C134.491 26.466 134.235 26.396 133.863 26.396H131.919C131.399 26.396 131.011 26.272 130.755 26.024C130.503 25.772 130.377 25.386 130.377 24.866C130.377 24.334 130.503 23.944 130.755 23.696C131.007 23.444 131.395 23.318 131.919 23.318H133.803C134.707 23.318 135.209 23.718 135.309 24.518C135.325 24.622 135.303 24.704 135.243 24.764C135.187 24.82 135.107 24.848 135.003 24.848C134.903 24.848 134.827 24.822 134.775 24.77C134.727 24.718 134.693 24.642 134.673 24.542C134.645 24.318 134.563 24.164 134.427 24.08C134.295 23.992 134.087 23.948 133.803 23.948H131.919C131.571 23.948 131.331 24.012 131.199 24.14C131.071 24.268 131.007 24.51 131.007 24.866C131.007 25.206 131.073 25.442 131.205 25.574C131.337 25.702 131.575 25.766 131.919 25.766H133.863C134.415 25.766 134.821 25.898 135.081 26.162C135.341 26.422 135.471 26.828 135.471 27.38C135.471 27.928 135.341 28.334 135.081 28.598C134.821 28.858 134.415 28.988 133.863 28.988H131.895Z" fill="white"/>
<path d="M61.436 81.988C60.72 81.988 60.188 81.83 59.84 81.514C59.496 81.194 59.312 80.692 59.288 80.008C59.284 79.912 59.31 79.836 59.366 79.78C59.426 79.72 59.504 79.69 59.6 79.69C59.696 79.69 59.772 79.718 59.828 79.774C59.884 79.83 59.916 79.906 59.924 80.002C59.94 80.506 60.06 80.858 60.284 81.058C60.508 81.258 60.892 81.358 61.436 81.358H63.164C63.732 81.358 64.126 81.248 64.346 81.028C64.57 80.804 64.682 80.412 64.682 79.852C64.682 79.284 64.57 78.89 64.346 78.67C64.126 78.446 63.732 78.334 63.164 78.334H61.52C60.816 78.334 60.3 78.17 59.972 77.842C59.644 77.514 59.48 77 59.48 76.3C59.48 75.6 59.642 75.086 59.966 74.758C60.294 74.43 60.808 74.266 61.508 74.266H63.188C63.86 74.266 64.358 74.416 64.682 74.716C65.01 75.016 65.186 75.488 65.21 76.132C65.218 76.228 65.192 76.306 65.132 76.366C65.076 76.422 64.998 76.45 64.898 76.45C64.806 76.45 64.732 76.422 64.676 76.366C64.62 76.31 64.588 76.234 64.58 76.138C64.564 75.678 64.452 75.356 64.244 75.172C64.036 74.988 63.684 74.896 63.188 74.896H61.508C60.984 74.896 60.62 75 60.416 75.208C60.212 75.412 60.11 75.776 60.11 76.3C60.11 76.824 60.212 77.19 60.416 77.398C60.624 77.602 60.992 77.704 61.52 77.704H63.164C63.908 77.704 64.452 77.878 64.796 78.226C65.14 78.57 65.312 79.112 65.312 79.852C65.312 80.592 65.14 81.134 64.796 81.478C64.452 81.818 63.908 81.988 63.164 81.988H61.436ZM67.7134 84.4C67.5014 84.4 67.3954 84.294 67.3954 84.082V76.642C67.3954 76.434 67.5014 76.33 67.7134 76.33C67.9214 76.33 68.0254 76.434 68.0254 76.642V77.176C68.2054 76.896 68.4634 76.686 68.7994 76.546C69.1354 76.402 69.5654 76.33 70.0894 76.33H70.5454C71.2934 76.33 71.8394 76.504 72.1834 76.852C72.5314 77.196 72.7054 77.742 72.7054 78.49V79.834C72.7054 80.582 72.5314 81.13 72.1834 81.478C71.8394 81.826 71.2934 82 70.5454 82H68.0254V84.082C68.0254 84.294 67.9214 84.4 67.7134 84.4ZM68.0254 81.37H70.5454C71.1174 81.37 71.5154 81.258 71.7394 81.034C71.9634 80.806 72.0754 80.406 72.0754 79.834V78.49C72.0754 77.918 71.9634 77.52 71.7394 77.296C71.5154 77.072 71.1174 76.96 70.5454 76.96H70.0894C69.4494 76.96 68.9574 77.06 68.6134 77.26C68.2734 77.46 68.0774 77.768 68.0254 78.184V81.37ZM75.1079 82C74.8959 82 74.7899 81.894 74.7899 81.682V76.642C74.7899 76.434 74.8959 76.33 75.1079 76.33C75.3159 76.33 75.4199 76.434 75.4199 76.642V77.566C75.6279 77.166 75.9279 76.86 76.3199 76.648C76.7159 76.436 77.1839 76.33 77.7239 76.33C77.9359 76.33 78.0419 76.434 78.0419 76.642C78.0419 76.854 77.9359 76.96 77.7239 76.96C77.0119 76.96 76.4599 77.122 76.0679 77.446C75.6759 77.766 75.4599 78.224 75.4199 78.82V81.682C75.4199 81.894 75.3159 82 75.1079 82ZM79.5469 79.408V79.846C79.5469 80.41 79.6589 80.806 79.8829 81.034C80.1109 81.258 80.5109 81.37 81.0829 81.37H82.0669C82.5709 81.37 82.9369 81.306 83.1649 81.178C83.3969 81.046 83.5349 80.82 83.5789 80.5C83.5949 80.4 83.6269 80.324 83.6749 80.272C83.7269 80.22 83.8049 80.194 83.9089 80.194C84.0129 80.194 84.0909 80.224 84.1429 80.284C84.1989 80.34 84.2209 80.42 84.2089 80.524C84.1569 81.028 83.9549 81.4 83.6029 81.64C83.2509 81.88 82.7389 82 82.0669 82H81.0829C80.3349 82 79.7869 81.828 79.4389 81.484C79.0909 81.136 78.9169 80.59 78.9169 79.846V78.49C78.9169 77.734 79.0909 77.184 79.4389 76.84C79.7869 76.492 80.3349 76.322 81.0829 76.33H82.0669C82.8149 76.33 83.3609 76.504 83.7049 76.852C84.0529 77.196 84.2269 77.742 84.2269 78.49V79.09C84.2269 79.302 84.1229 79.408 83.9149 79.408H79.5469ZM81.0829 76.96C80.5109 76.952 80.1109 77.062 79.8829 77.29C79.6589 77.514 79.5469 77.914 79.5469 78.49V78.778H83.5969V78.49C83.5969 77.918 83.4849 77.52 83.2609 77.296C83.0369 77.072 82.6389 76.96 82.0669 76.96H81.0829ZM87.9954 82C87.3714 82 86.9134 81.856 86.6214 81.568C86.3334 81.276 86.1894 80.818 86.1894 80.194C86.1894 79.57 86.3354 79.112 86.6274 78.82C86.9194 78.528 87.3754 78.382 87.9954 78.382H90.7254C90.7174 77.854 90.5974 77.486 90.3654 77.278C90.1374 77.066 89.7474 76.96 89.1954 76.96H88.4994C87.9914 76.96 87.6194 77.014 87.3834 77.122C87.1474 77.23 87.0014 77.414 86.9454 77.674C86.9174 77.774 86.8794 77.848 86.8314 77.896C86.7874 77.94 86.7154 77.962 86.6154 77.962C86.5114 77.962 86.4294 77.934 86.3694 77.878C86.3134 77.818 86.2934 77.738 86.3094 77.638C86.3614 77.182 86.5674 76.85 86.9274 76.642C87.2914 76.434 87.8154 76.33 88.4994 76.33H89.1954C89.9434 76.33 90.4894 76.504 90.8334 76.852C91.1814 77.196 91.3554 77.742 91.3554 78.49V81.682C91.3554 81.894 91.2514 82 91.0434 82C90.8314 82 90.7254 81.894 90.7254 81.682V81.088C90.3414 81.696 89.6554 82 88.6674 82H87.9954ZM87.9954 81.37H88.6674C89.0554 81.37 89.3954 81.328 89.6874 81.244C89.9834 81.156 90.2214 81.016 90.4014 80.824C90.5814 80.632 90.6894 80.376 90.7254 80.056V79.012H87.9954C87.5514 79.012 87.2434 79.098 87.0714 79.27C86.9034 79.438 86.8194 79.746 86.8194 80.194C86.8194 80.638 86.9034 80.946 87.0714 81.118C87.2434 81.286 87.5514 81.37 87.9954 81.37ZM95.497 82C94.749 82 94.201 81.826 93.853 81.478C93.505 81.13 93.331 80.582 93.331 79.834V78.49C93.331 77.742 93.505 77.196 93.853 76.852C94.201 76.504 94.749 76.33 95.497 76.33H98.011V73.99C98.011 73.782 98.117 73.678 98.329 73.678C98.537 73.678 98.641 73.782 98.641 73.99V81.682C98.641 81.894 98.537 82 98.329 82C98.117 82 98.011 81.894 98.011 81.682V81.166C97.839 81.442 97.587 81.65 97.255 81.79C96.923 81.93 96.489 82 95.953 82H95.497ZM95.497 81.37H95.953C96.577 81.37 97.075 81.272 97.447 81.076C97.823 80.876 98.011 80.578 98.011 80.182V76.96H95.497C94.925 76.96 94.525 77.074 94.297 77.302C94.073 77.526 93.961 77.922 93.961 78.49V79.834C93.961 80.406 94.073 80.806 94.297 81.034C94.525 81.258 94.925 81.37 95.497 81.37ZM105.78 81.988C105.064 81.988 104.532 81.83 104.184 81.514C103.84 81.194 103.656 80.692 103.632 80.008C103.628 79.912 103.654 79.836 103.71 79.78C103.77 79.72 103.848 79.69 103.944 79.69C104.04 79.69 104.116 79.718 104.172 79.774C104.228 79.83 104.26 79.906 104.268 80.002C104.284 80.506 104.404 80.858 104.628 81.058C104.852 81.258 105.236 81.358 105.78 81.358H107.508C108.076 81.358 108.47 81.248 108.69 81.028C108.914 80.804 109.026 80.412 109.026 79.852C109.026 79.284 108.914 78.89 108.69 78.67C108.47 78.446 108.076 78.334 107.508 78.334H105.864C105.16 78.334 104.644 78.17 104.316 77.842C103.988 77.514 103.824 77 103.824 76.3C103.824 75.6 103.986 75.086 104.31 74.758C104.638 74.43 105.152 74.266 105.852 74.266H107.532C108.204 74.266 108.702 74.416 109.026 74.716C109.354 75.016 109.53 75.488 109.554 76.132C109.562 76.228 109.536 76.306 109.476 76.366C109.42 76.422 109.342 76.45 109.242 76.45C109.15 76.45 109.076 76.422 109.02 76.366C108.964 76.31 108.932 76.234 108.924 76.138C108.908 75.678 108.796 75.356 108.588 75.172C108.38 74.988 108.028 74.896 107.532 74.896H105.852C105.328 74.896 104.964 75 104.76 75.208C104.556 75.412 104.454 75.776 104.454 76.3C104.454 76.824 104.556 77.19 104.76 77.398C104.968 77.602 105.336 77.704 105.864 77.704H107.508C108.252 77.704 108.796 77.878 109.14 78.226C109.484 78.57 109.656 79.112 109.656 79.852C109.656 80.592 109.484 81.134 109.14 81.478C108.796 81.818 108.252 81.988 107.508 81.988H105.78ZM112.057 82C111.845 82 111.739 81.894 111.739 81.682V73.99C111.739 73.782 111.845 73.678 112.057 73.678C112.265 73.678 112.369 73.782 112.369 73.99V77.218C112.749 76.626 113.437 76.33 114.433 76.33H114.769C115.517 76.33 116.063 76.504 116.407 76.852C116.755 77.196 116.929 77.742 116.929 78.49V81.682C116.929 81.894 116.825 82 116.617 82C116.405 82 116.299 81.894 116.299 81.682V78.49C116.299 77.918 116.185 77.52 115.957 77.296C115.733 77.072 115.337 76.96 114.769 76.96H114.433C113.813 76.96 113.325 77.058 112.969 77.254C112.613 77.45 112.413 77.756 112.369 78.172V81.682C112.369 81.894 112.265 82 112.057 82ZM119.531 79.408V79.846C119.531 80.41 119.643 80.806 119.867 81.034C120.095 81.258 120.495 81.37 121.067 81.37H122.051C122.555 81.37 122.921 81.306 123.149 81.178C123.381 81.046 123.519 80.82 123.563 80.5C123.579 80.4 123.611 80.324 123.659 80.272C123.711 80.22 123.789 80.194 123.893 80.194C123.997 80.194 124.075 80.224 124.127 80.284C124.183 80.34 124.205 80.42 124.193 80.524C124.141 81.028 123.939 81.4 123.587 81.64C123.235 81.88 122.723 82 122.051 82H121.067C120.319 82 119.771 81.828 119.423 81.484C119.075 81.136 118.901 80.59 118.901 79.846V78.49C118.901 77.734 119.075 77.184 119.423 76.84C119.771 76.492 120.319 76.322 121.067 76.33H122.051C122.799 76.33 123.345 76.504 123.689 76.852C124.037 77.196 124.211 77.742 124.211 78.49V79.09C124.211 79.302 124.107 79.408 123.899 79.408H119.531ZM121.067 76.96C120.495 76.952 120.095 77.062 119.867 77.29C119.643 77.514 119.531 77.914 119.531 78.49V78.778H123.581V78.49C123.581 77.918 123.469 77.52 123.245 77.296C123.021 77.072 122.623 76.96 122.051 76.96H121.067ZM126.762 79.408V79.846C126.762 80.41 126.874 80.806 127.098 81.034C127.326 81.258 127.726 81.37 128.298 81.37H129.282C129.786 81.37 130.152 81.306 130.38 81.178C130.612 81.046 130.75 80.82 130.794 80.5C130.81 80.4 130.842 80.324 130.89 80.272C130.942 80.22 131.02 80.194 131.124 80.194C131.228 80.194 131.306 80.224 131.358 80.284C131.414 80.34 131.436 80.42 131.424 80.524C131.372 81.028 131.17 81.4 130.818 81.64C130.466 81.88 129.954 82 129.282 82H128.298C127.55 82 127.002 81.828 126.654 81.484C126.306 81.136 126.132 80.59 126.132 79.846V78.49C126.132 77.734 126.306 77.184 126.654 76.84C127.002 76.492 127.55 76.322 128.298 76.33H129.282C130.03 76.33 130.576 76.504 130.92 76.852C131.268 77.196 131.442 77.742 131.442 78.49V79.09C131.442 79.302 131.338 79.408 131.13 79.408H126.762ZM128.298 76.96C127.726 76.952 127.326 77.062 127.098 77.29C126.874 77.514 126.762 77.914 126.762 78.49V78.778H130.812V78.49C130.812 77.918 130.7 77.52 130.476 77.296C130.252 77.072 129.854 76.96 129.282 76.96H128.298ZM135.606 82C134.87 82 134.332 81.83 133.992 81.49C133.652 81.15 133.482 80.614 133.482 79.882V76.96H132.768C132.556 76.96 132.45 76.854 132.45 76.642C132.45 76.434 132.556 76.33 132.768 76.33H133.482V75.04C133.482 74.828 133.586 74.722 133.794 74.722C134.006 74.722 134.112 74.828 134.112 75.04V76.33H135.618C135.826 76.33 135.93 76.434 135.93 76.642C135.93 76.854 135.826 76.96 135.618 76.96H134.112V79.882C134.112 80.442 134.22 80.83 134.436 81.046C134.656 81.262 135.046 81.37 135.606 81.37C135.722 81.37 135.804 81.396 135.852 81.448C135.904 81.5 135.93 81.578 135.93 81.682C135.93 81.894 135.822 82 135.606 82ZM138.833 81.988C138.341 81.988 137.965 81.884 137.705 81.676C137.445 81.464 137.289 81.142 137.237 80.71C137.225 80.606 137.247 80.526 137.303 80.47C137.359 80.41 137.441 80.38 137.549 80.38C137.649 80.38 137.723 80.406 137.771 80.458C137.823 80.51 137.857 80.588 137.873 80.692C137.909 80.94 137.999 81.114 138.143 81.214C138.291 81.31 138.521 81.358 138.833 81.358H140.801C141.173 81.358 141.429 81.288 141.569 81.148C141.709 81.008 141.779 80.752 141.779 80.38C141.779 80.004 141.709 79.746 141.569 79.606C141.429 79.466 141.173 79.396 140.801 79.396H138.857C138.337 79.396 137.949 79.272 137.693 79.024C137.441 78.772 137.315 78.386 137.315 77.866C137.315 77.334 137.441 76.944 137.693 76.696C137.945 76.444 138.333 76.318 138.857 76.318H140.741C141.645 76.318 142.147 76.718 142.247 77.518C142.263 77.622 142.241 77.704 142.181 77.764C142.125 77.82 142.045 77.848 141.941 77.848C141.841 77.848 141.765 77.822 141.713 77.77C141.665 77.718 141.631 77.642 141.611 77.542C141.583 77.318 141.501 77.164 141.365 77.08C141.233 76.992 141.025 76.948 140.741 76.948H138.857C138.509 76.948 138.269 77.012 138.137 77.14C138.009 77.268 137.945 77.51 137.945 77.866C137.945 78.206 138.011 78.442 138.143 78.574C138.275 78.702 138.513 78.766 138.857 78.766H140.801C141.353 78.766 141.759 78.898 142.019 79.162C142.279 79.422 142.409 79.828 142.409 80.38C142.409 80.928 142.279 81.334 142.019 81.598C141.759 81.858 141.353 81.988 140.801 81.988H138.833Z" fill="white"/>
<path d="M59.768 135C59.556 135 59.45 134.894 59.45 134.682V127.584C59.45 127.372 59.556 127.266 59.768 127.266C59.92 127.266 60.04 127.336 60.128 127.476L63.116 132.042L62.972 132.06L65.96 127.476C66.044 127.336 66.17 127.266 66.338 127.266C66.526 127.266 66.62 127.372 66.62 127.584V134.682C66.62 134.894 66.516 135 66.308 135C66.096 135 65.99 134.894 65.99 134.682V128.214L66.176 128.274L63.404 132.498C63.316 132.634 63.19 132.702 63.026 132.702C62.882 132.702 62.766 132.634 62.678 132.498L59.906 128.274L60.08 128.34V134.682C60.08 134.894 59.976 135 59.768 135ZM70.5462 135C69.9222 135 69.4642 134.856 69.1722 134.568C68.8842 134.276 68.7402 133.818 68.7402 133.194C68.7402 132.57 68.8862 132.112 69.1782 131.82C69.4702 131.528 69.9262 131.382 70.5462 131.382H73.2762C73.2682 130.854 73.1482 130.486 72.9162 130.278C72.6882 130.066 72.2982 129.96 71.7462 129.96H71.0502C70.5422 129.96 70.1702 130.014 69.9342 130.122C69.6982 130.23 69.5522 130.414 69.4962 130.674C69.4682 130.774 69.4302 130.848 69.3822 130.896C69.3382 130.94 69.2662 130.962 69.1662 130.962C69.0622 130.962 68.9802 130.934 68.9202 130.878C68.8642 130.818 68.8442 130.738 68.8602 130.638C68.9122 130.182 69.1182 129.85 69.4782 129.642C69.8422 129.434 70.3662 129.33 71.0502 129.33H71.7462C72.4942 129.33 73.0402 129.504 73.3842 129.852C73.7322 130.196 73.9062 130.742 73.9062 131.49V134.682C73.9062 134.894 73.8022 135 73.5942 135C73.3822 135 73.2762 134.894 73.2762 134.682V134.088C72.8922 134.696 72.2062 135 71.2182 135H70.5462ZM70.5462 134.37H71.2182C71.6062 134.37 71.9462 134.328 72.2382 134.244C72.5342 134.156 72.7722 134.016 72.9522 133.824C73.1322 133.632 73.2402 133.376 73.2762 133.056V132.012H70.5462C70.1022 132.012 69.7942 132.098 69.6222 132.27C69.4542 132.438 69.3702 132.746 69.3702 133.194C69.3702 133.638 69.4542 133.946 69.6222 134.118C69.7942 134.286 70.1022 134.37 70.5462 134.37ZM76.3618 135C76.1498 135 76.0438 134.894 76.0438 134.682V129.642C76.0438 129.434 76.1498 129.33 76.3618 129.33C76.5698 129.33 76.6738 129.434 76.6738 129.642V130.218C77.0538 129.626 77.7418 129.33 78.7378 129.33H79.0738C79.8218 129.33 80.3678 129.504 80.7118 129.852C81.0598 130.196 81.2338 130.742 81.2338 131.49V134.682C81.2338 134.894 81.1298 135 80.9218 135C80.7098 135 80.6038 134.894 80.6038 134.682V131.49C80.6038 130.918 80.4898 130.52 80.2618 130.296C80.0378 130.072 79.6418 129.96 79.0738 129.96H78.7378C78.1178 129.96 77.6298 130.058 77.2738 130.254C76.9178 130.45 76.7178 130.756 76.6738 131.172V134.682C76.6738 134.894 76.5698 135 76.3618 135ZM88.132 129.33C88.344 129.33 88.45 129.434 88.45 129.642V134.682C88.45 134.894 88.344 135 88.132 135C87.924 135 87.82 134.894 87.82 134.682V134.112C87.44 134.704 86.752 135 85.756 135H85.42C84.672 135 84.124 134.826 83.776 134.478C83.432 134.13 83.26 133.582 83.26 132.834V129.642C83.26 129.434 83.364 129.33 83.572 129.33C83.784 129.33 83.89 129.434 83.89 129.642V132.834C83.89 133.406 84.002 133.806 84.226 134.034C84.454 134.258 84.852 134.37 85.42 134.37H85.756C86.376 134.37 86.864 134.27 87.22 134.07C87.576 133.87 87.776 133.564 87.82 133.152V129.642C87.82 129.434 87.924 129.33 88.132 129.33ZM92.3782 135C91.7542 135 91.2962 134.856 91.0042 134.568C90.7162 134.276 90.5722 133.818 90.5722 133.194C90.5722 132.57 90.7182 132.112 91.0102 131.82C91.3022 131.528 91.7582 131.382 92.3782 131.382H95.1082C95.1002 130.854 94.9802 130.486 94.7482 130.278C94.5202 130.066 94.1302 129.96 93.5782 129.96H92.8822C92.3742 129.96 92.0022 130.014 91.7662 130.122C91.5302 130.23 91.3842 130.414 91.3282 130.674C91.3002 130.774 91.2622 130.848 91.2142 130.896C91.1702 130.94 91.0982 130.962 90.9982 130.962C90.8942 130.962 90.8122 130.934 90.7522 130.878C90.6962 130.818 90.6762 130.738 90.6922 130.638C90.7442 130.182 90.9502 129.85 91.3102 129.642C91.6742 129.434 92.1982 129.33 92.8822 129.33H93.5782C94.3262 129.33 94.8722 129.504 95.2162 129.852C95.5642 130.196 95.7382 130.742 95.7382 131.49V134.682C95.7382 134.894 95.6342 135 95.4262 135C95.2142 135 95.1082 134.894 95.1082 134.682V134.088C94.7242 134.696 94.0382 135 93.0502 135H92.3782ZM92.3782 134.37H93.0502C93.4382 134.37 93.7782 134.328 94.0702 134.244C94.3662 134.156 94.6042 134.016 94.7842 133.824C94.9642 133.632 95.0722 133.376 95.1082 133.056V132.012H92.3782C91.9342 132.012 91.6262 132.098 91.4542 132.27C91.2862 132.438 91.2022 132.746 91.2022 133.194C91.2022 133.638 91.2862 133.946 91.4542 134.118C91.6262 134.286 91.9342 134.37 92.3782 134.37ZM99.5258 135C98.9578 135 98.5398 134.868 98.2718 134.604C98.0078 134.34 97.8758 133.926 97.8758 133.362V126.99C97.8758 126.782 97.9818 126.678 98.1938 126.678C98.4018 126.678 98.5058 126.782 98.5058 126.99V133.362C98.5058 133.75 98.5778 134.016 98.7218 134.16C98.8658 134.3 99.1318 134.37 99.5198 134.37C99.7358 134.37 99.8438 134.474 99.8438 134.682C99.8478 134.894 99.7418 135 99.5258 135ZM109.612 135.012C109.524 135.064 109.444 135.082 109.372 135.066C109.3 135.05 109.236 135 109.18 134.916L107.212 131.784H105.01V134.682C105.01 134.894 104.906 135 104.698 135C104.486 135 104.38 134.894 104.38 134.682V127.584C104.38 127.372 104.486 127.266 104.698 127.266H107.506C108.19 127.266 108.706 127.442 109.054 127.794C109.406 128.146 109.582 128.664 109.582 129.348V129.708C109.582 130.312 109.444 130.786 109.168 131.13C108.892 131.474 108.484 131.684 107.944 131.76L109.714 134.58C109.826 134.764 109.792 134.908 109.612 135.012ZM105.01 131.154H107.506C108.01 131.154 108.376 131.04 108.604 130.812C108.836 130.58 108.952 130.212 108.952 129.708V129.348C108.952 128.84 108.836 128.472 108.604 128.244C108.376 128.012 108.01 127.896 107.506 127.896H105.01V131.154ZM111.961 132.408V132.846C111.961 133.41 112.073 133.806 112.297 134.034C112.525 134.258 112.925 134.37 113.497 134.37H114.481C114.985 134.37 115.351 134.306 115.579 134.178C115.811 134.046 115.949 133.82 115.993 133.5C116.009 133.4 116.041 133.324 116.089 133.272C116.141 133.22 116.219 133.194 116.323 133.194C116.427 133.194 116.505 133.224 116.557 133.284C116.613 133.34 116.635 133.42 116.623 133.524C116.571 134.028 116.369 134.4 116.017 134.64C115.665 134.88 115.153 135 114.481 135H113.497C112.749 135 112.201 134.828 111.853 134.484C111.505 134.136 111.331 133.59 111.331 132.846V131.49C111.331 130.734 111.505 130.184 111.853 129.84C112.201 129.492 112.749 129.322 113.497 129.33H114.481C115.229 129.33 115.775 129.504 116.119 129.852C116.467 130.196 116.641 130.742 116.641 131.49V132.09C116.641 132.302 116.537 132.408 116.329 132.408H111.961ZM113.497 129.96C112.925 129.952 112.525 130.062 112.297 130.29C112.073 130.514 111.961 130.914 111.961 131.49V131.778H116.011V131.49C116.011 130.918 115.899 130.52 115.675 130.296C115.451 130.072 115.053 129.96 114.481 129.96H113.497ZM120.667 134.76C120.623 134.856 120.569 134.92 120.505 134.952C120.441 134.984 120.367 135 120.283 135C120.107 135 119.983 134.918 119.911 134.754L117.685 129.768C117.601 129.572 117.659 129.436 117.859 129.36C118.047 129.28 118.183 129.336 118.267 129.528L120.487 134.496H120.103L122.467 129.522C122.511 129.43 122.569 129.37 122.641 129.342C122.713 129.314 122.795 129.32 122.887 129.36C123.083 129.448 123.137 129.588 123.049 129.78L120.667 134.76ZM124.681 128.238C124.405 128.238 124.267 128.096 124.267 127.812V127.542C124.267 127.266 124.405 127.128 124.681 127.128H124.951C125.219 127.128 125.353 127.266 125.353 127.542V127.812C125.353 128.096 125.219 128.238 124.951 128.238H124.681ZM124.819 135C124.607 135 124.501 134.894 124.501 134.682V129.642C124.501 129.434 124.607 129.33 124.819 129.33C125.027 129.33 125.131 129.434 125.131 129.642V134.682C125.131 134.894 125.027 135 124.819 135ZM127.84 132.408V132.846C127.84 133.41 127.952 133.806 128.176 134.034C128.404 134.258 128.804 134.37 129.376 134.37H130.36C130.864 134.37 131.23 134.306 131.458 134.178C131.69 134.046 131.828 133.82 131.872 133.5C131.888 133.4 131.92 133.324 131.968 133.272C132.02 133.22 132.098 133.194 132.202 133.194C132.306 133.194 132.384 133.224 132.436 133.284C132.492 133.34 132.514 133.42 132.502 133.524C132.45 134.028 132.248 134.4 131.896 134.64C131.544 134.88 131.032 135 130.36 135H129.376C128.628 135 128.08 134.828 127.732 134.484C127.384 134.136 127.21 133.59 127.21 132.846V131.49C127.21 130.734 127.384 130.184 127.732 129.84C128.08 129.492 128.628 129.322 129.376 129.33H130.36C131.108 129.33 131.654 129.504 131.998 129.852C132.346 130.196 132.52 130.742 132.52 131.49V132.09C132.52 132.302 132.416 132.408 132.208 132.408H127.84ZM129.376 129.96C128.804 129.952 128.404 130.062 128.176 130.29C127.952 130.514 127.84 130.914 127.84 131.49V131.778H131.89V131.49C131.89 130.918 131.778 130.52 131.554 130.296C131.33 130.072 130.932 129.96 130.36 129.96H129.376ZM135.61 135C135.422 135 135.3 134.914 135.244 134.742L133.552 129.756C133.484 129.552 133.55 129.418 133.75 129.354C133.946 129.294 134.076 129.36 134.14 129.552L135.784 134.37H135.532L137.104 129.642C137.16 129.474 137.28 129.39 137.464 129.39C137.64 129.39 137.754 129.476 137.806 129.648L139.276 134.358H139.012L140.74 129.552C140.82 129.348 140.956 129.282 141.148 129.354C141.348 129.43 141.412 129.566 141.34 129.762L139.486 134.742C139.422 134.914 139.298 135 139.114 135C138.91 135 138.782 134.914 138.73 134.742L137.368 130.38H137.488L135.988 134.742C135.956 134.842 135.906 134.91 135.838 134.946C135.77 134.982 135.694 135 135.61 135Z" fill="white"/>
<path d="M73.2284 188C73.0164 188 72.9104 187.894 72.9104 187.682V180.584C72.9104 180.372 73.0164 180.266 73.2284 180.266H76.3604C76.9484 180.266 77.3924 180.416 77.6924 180.716C77.9964 181.012 78.1484 181.448 78.1484 182.024V182.348C78.1484 182.976 77.9464 183.42 77.5424 183.68C78.2424 183.968 78.5924 184.592 78.5924 185.552V185.93C78.5924 186.61 78.4164 187.126 78.0644 187.478C77.7164 187.826 77.2004 188 76.5164 188H73.2284ZM73.5404 187.37H76.5164C77.0244 187.37 77.3924 187.256 77.6204 187.028C77.8484 186.8 77.9624 186.434 77.9624 185.93V185.552C77.9624 185.048 77.8484 184.684 77.6204 184.46C77.3964 184.236 77.0284 184.124 76.5164 184.124H73.5404V187.37ZM73.5404 183.494H76.4504C76.8144 183.494 77.0824 183.402 77.2544 183.218C77.4304 183.03 77.5184 182.74 77.5184 182.348V182.024C77.5184 181.624 77.4264 181.336 77.2424 181.16C77.0624 180.984 76.7684 180.896 76.3604 180.896H73.5404V183.494ZM82.3558 188C81.6078 188 81.0598 187.828 80.7118 187.484C80.3638 187.136 80.1898 186.59 80.1898 185.846V184.49C80.1898 183.734 80.3638 183.184 80.7118 182.84C81.0598 182.492 81.6078 182.322 82.3558 182.33H83.3398C84.0878 182.33 84.6338 182.504 84.9778 182.852C85.3258 183.196 85.4998 183.742 85.4998 184.49V185.834C85.4998 186.582 85.3258 187.13 84.9778 187.478C84.6338 187.826 84.0878 188 83.3398 188H82.3558ZM80.8198 185.846C80.8198 186.41 80.9318 186.806 81.1558 187.034C81.3838 187.258 81.7838 187.37 82.3558 187.37H83.3398C83.9118 187.37 84.3098 187.258 84.5338 187.034C84.7578 186.806 84.8698 186.406 84.8698 185.834V184.49C84.8698 183.918 84.7578 183.52 84.5338 183.296C84.3098 183.072 83.9118 182.96 83.3398 182.96H82.3558C81.9718 182.956 81.6678 183.002 81.4438 183.098C81.2198 183.194 81.0598 183.354 80.9638 183.578C80.8678 183.802 80.8198 184.106 80.8198 184.49V185.846ZM89.6639 188C88.9279 188 88.3899 187.83 88.0499 187.49C87.7099 187.15 87.5399 186.614 87.5399 185.882V182.96H86.8259C86.6139 182.96 86.5079 182.854 86.5079 182.642C86.5079 182.434 86.6139 182.33 86.8259 182.33H87.5399V181.04C87.5399 180.828 87.6439 180.722 87.8519 180.722C88.0639 180.722 88.1699 180.828 88.1699 181.04V182.33H89.6759C89.8839 182.33 89.9879 182.434 89.9879 182.642C89.9879 182.854 89.8839 182.96 89.6759 182.96H88.1699V185.882C88.1699 186.442 88.2779 186.83 88.4939 187.046C88.7139 187.262 89.1039 187.37 89.6639 187.37C89.7799 187.37 89.8619 187.396 89.9099 187.448C89.9619 187.5 89.9879 187.578 89.9879 187.682C89.9879 187.894 89.8799 188 89.6639 188ZM93.9646 188C93.2286 188 92.6906 187.83 92.3506 187.49C92.0106 187.15 91.8406 186.614 91.8406 185.882V182.96H91.1266C90.9146 182.96 90.8086 182.854 90.8086 182.642C90.8086 182.434 90.9146 182.33 91.1266 182.33H91.8406V181.04C91.8406 180.828 91.9446 180.722 92.1526 180.722C92.3646 180.722 92.4706 180.828 92.4706 181.04V182.33H93.9766C94.1846 182.33 94.2886 182.434 94.2886 182.642C94.2886 182.854 94.1846 182.96 93.9766 182.96H92.4706V185.882C92.4706 186.442 92.5786 186.83 92.7946 187.046C93.0146 187.262 93.4046 187.37 93.9646 187.37C94.0806 187.37 94.1626 187.396 94.2106 187.448C94.2626 187.5 94.2886 187.578 94.2886 187.682C94.2886 187.894 94.1806 188 93.9646 188ZM97.5994 188C97.0314 188 96.6134 187.868 96.3454 187.604C96.0814 187.34 95.9494 186.926 95.9494 186.362V179.99C95.9494 179.782 96.0554 179.678 96.2674 179.678C96.4754 179.678 96.5794 179.782 96.5794 179.99V186.362C96.5794 186.75 96.6514 187.016 96.7954 187.16C96.9394 187.3 97.2054 187.37 97.5934 187.37C97.8094 187.37 97.9174 187.474 97.9174 187.682C97.9214 187.894 97.8154 188 97.5994 188ZM99.6752 185.408V185.846C99.6752 186.41 99.7872 186.806 100.011 187.034C100.239 187.258 100.639 187.37 101.211 187.37H102.195C102.699 187.37 103.065 187.306 103.293 187.178C103.525 187.046 103.663 186.82 103.707 186.5C103.723 186.4 103.755 186.324 103.803 186.272C103.855 186.22 103.933 186.194 104.037 186.194C104.141 186.194 104.219 186.224 104.271 186.284C104.327 186.34 104.349 186.42 104.337 186.524C104.285 187.028 104.083 187.4 103.731 187.64C103.379 187.88 102.867 188 102.195 188H101.211C100.463 188 99.9152 187.828 99.5672 187.484C99.2192 187.136 99.0452 186.59 99.0452 185.846V184.49C99.0452 183.734 99.2192 183.184 99.5672 182.84C99.9152 182.492 100.463 182.322 101.211 182.33H102.195C102.943 182.33 103.489 182.504 103.833 182.852C104.181 183.196 104.355 183.742 104.355 184.49V185.09C104.355 185.302 104.251 185.408 104.043 185.408H99.6752ZM101.211 182.96C100.639 182.952 100.239 183.062 100.011 183.29C99.7872 183.514 99.6752 183.914 99.6752 184.49V184.778H103.725V184.49C103.725 183.918 103.613 183.52 103.389 183.296C103.165 183.072 102.767 182.96 102.195 182.96H101.211ZM106.756 188C106.544 188 106.438 187.894 106.438 187.682V182.642C106.438 182.434 106.544 182.33 106.756 182.33C106.964 182.33 107.068 182.434 107.068 182.642V183.218C107.448 182.626 108.136 182.33 109.132 182.33H109.468C110.216 182.33 110.762 182.504 111.106 182.852C111.454 183.196 111.628 183.742 111.628 184.49V187.682C111.628 187.894 111.524 188 111.316 188C111.104 188 110.998 187.894 110.998 187.682V184.49C110.998 183.918 110.884 183.52 110.656 183.296C110.432 183.072 110.036 182.96 109.468 182.96H109.132C108.512 182.96 108.024 183.058 107.668 183.254C107.312 183.45 107.112 183.756 107.068 184.172V187.682C107.068 187.894 106.964 188 106.756 188ZM114.23 185.408V185.846C114.23 186.41 114.342 186.806 114.566 187.034C114.794 187.258 115.194 187.37 115.766 187.37H116.75C117.254 187.37 117.62 187.306 117.848 187.178C118.08 187.046 118.218 186.82 118.262 186.5C118.278 186.4 118.31 186.324 118.358 186.272C118.41 186.22 118.488 186.194 118.592 186.194C118.696 186.194 118.774 186.224 118.826 186.284C118.882 186.34 118.904 186.42 118.892 186.524C118.84 187.028 118.638 187.4 118.286 187.64C117.934 187.88 117.422 188 116.75 188H115.766C115.018 188 114.47 187.828 114.122 187.484C113.774 187.136 113.6 186.59 113.6 185.846V184.49C113.6 183.734 113.774 183.184 114.122 182.84C114.47 182.492 115.018 182.322 115.766 182.33H116.75C117.498 182.33 118.044 182.504 118.388 182.852C118.736 183.196 118.91 183.742 118.91 184.49V185.09C118.91 185.302 118.806 185.408 118.598 185.408H114.23ZM115.766 182.96C115.194 182.952 114.794 183.062 114.566 183.29C114.342 183.514 114.23 183.914 114.23 184.49V184.778H118.28V184.49C118.28 183.918 118.168 183.52 117.944 183.296C117.72 183.072 117.322 182.96 116.75 182.96H115.766ZM122.996 188C122.248 188 121.7 187.826 121.352 187.478C121.004 187.13 120.83 186.582 120.83 185.834V184.478C120.83 183.73 121.002 183.184 121.346 182.84C121.694 182.492 122.244 182.322 122.996 182.33H123.98C124.568 182.33 125.016 182.43 125.324 182.63C125.636 182.826 125.822 183.136 125.882 183.56C125.894 183.668 125.87 183.75 125.81 183.806C125.754 183.862 125.674 183.89 125.57 183.89C125.474 183.89 125.402 183.866 125.354 183.818C125.306 183.766 125.27 183.692 125.246 183.596C125.202 183.364 125.084 183.2 124.892 183.104C124.7 183.008 124.396 182.96 123.98 182.96H122.996C122.424 182.952 122.024 183.06 121.796 183.284C121.572 183.504 121.46 183.902 121.46 184.478V185.834C121.46 186.406 121.572 186.806 121.796 187.034C122.024 187.258 122.424 187.37 122.996 187.37H123.98C124.396 187.37 124.7 187.322 124.892 187.226C125.084 187.13 125.202 186.964 125.246 186.728C125.27 186.632 125.306 186.56 125.354 186.512C125.402 186.46 125.474 186.434 125.57 186.434C125.674 186.434 125.754 186.464 125.81 186.524C125.87 186.58 125.894 186.66 125.882 186.764C125.822 187.188 125.636 187.5 125.324 187.7C125.016 187.9 124.568 188 123.98 188H122.996ZM128.166 188C127.954 188 127.848 187.894 127.848 187.682V179.99C127.848 179.782 127.954 179.678 128.166 179.678C128.374 179.678 128.478 179.782 128.478 179.99V184.976L131.526 182.36C131.678 182.224 131.824 182.234 131.964 182.39C132.1 182.546 132.09 182.694 131.934 182.834L129.726 184.736L132.126 187.46C132.266 187.616 132.256 187.764 132.096 187.904C131.944 188.04 131.798 188.03 131.658 187.874L129.24 185.15L128.478 185.804V187.682C128.478 187.894 128.374 188 128.166 188Z" fill="white"/>
<defs>
<radialGradient id="paint0_radial_1_35" cx="0" cy="0" r="1" gradientTransform="matrix(-142.455 -26 5.8328 -25.4 174.984 38)" gradientUnits="userSpaceOnUse">
<stop stop-color="#103238"/>
<stop offset="0.500021" stop-color="#B0B0B0"/>
<stop offset="1" stop-color="#103238"/>
</radialGradient>
<radialGradient id="paint1_radial_1_35" cx="0" cy="0" r="1" gradientTransform="matrix(-142.455 -26 5.8328 -25.4 174.984 144)" gradientUnits="userSpaceOnUse">
<stop stop-color="#103238"/>
<stop offset="0.500021" stop-color="#B0B0B0"/>
<stop offset="1" stop-color="#103238"/>
</radialGradient>
<radialGradient id="paint2_radial_1_35" cx="0" cy="0" r="1" gradientTransform="matrix(-142.455 -26 5.8328 -25.4 174.984 91)" gradientUnits="userSpaceOnUse">
<stop stop-color="#B0B0B0"/>
<stop offset="0.500021" stop-color="#103238"/>
<stop offset="1" stop-color="#B0B0B0"/>
</radialGradient>
<radialGradient id="paint3_radial_1_35" cx="0" cy="0" r="1" gradientTransform="matrix(-142.455 -26 5.8328 -25.4 174.984 197)" gradientUnits="userSpaceOnUse">
<stop stop-color="#B0B0B0"/>
<stop offset="0.500021" stop-color="#103238"/>
<stop offset="1" stop-color="#B0B0B0"/>
</radialGradient>
</defs>
</svg>
